# AST/ASF file generated using VICON BodyLanguage
# -----------------------------------------------
:version 1.10
:name VICON
:units
  mass 1.0
  length 0.45
  angle deg
:documentation
   .ast/.asf automatically generated from VICON data using
   VICON BodyBuilder and BodyLanguage model FoxedUp or BRILLIANT.MOD
:root
   order TX TY TZ RX RY RZ
   axis XYZ
   position 0 0 0  
   orientation 0 -0 0 
:bonedata
  begin
     id 1 
     name lhipjoint
     direction 0.500677 -0.737119 0.453848 
     length 2.34727 
     axis 0 -0 0  XYZ
  end
  begin
     id 2 
     name lfemur
     direction 0.34202 -0.939693 0  
     length 7.53653  
     axis 0 -0 20  XYZ
    dof rx ry rz
    limits (-160.0 20.0)
           (-70.0 70.0)
           (-60.0 70.0)
  end
  begin
     id 3 
     name ltibia
     direction 0.34202 -0.939693 0   
     length 6.85572   
     axis 0 -0 20   XYZ
    dof rx
    limits (-10.0 170.0)
  end
  begin
     id 4 
     name lfoot
     direction 0.155313 -0.426718 0.890949   
     length 2.18324   
     axis -90 -1.13533e-015 20   XYZ
    dof rx rz
    limits (-45.0 90.0)
           (-70.0 20.0)
  end
  begin
     id 5 
     name ltoes
     direction 1.53474e-011 -4.21647e-011 1   
     length 1.06748   
     axis -90 -1.13533e-015 20   XYZ
    dof rx
    limits (-90.0 20.0)
  end
  begin
     id 6 
     name rhipjoint
     direction -0.632471 -0.659587 0.406111   
     length 2.62319  
     axis 0 -0 0  XYZ 
  end
  begin
     id 7 
     name rfemur
     direction -0.34202 -0.939693 0   
     length 7.21735   
     axis 0 -0 -20   XYZ
    dof rx ry rz
    limits (-160.0 20.0)
           (-70.0 70.0)
           (-70.0 60.0)
  end
  begin
     id 8 
     name rtibia
     direction -0.34202 -0.939693 0   
     length 7.02558   
     axis 0 -0 -20   XYZ
    dof rx
    limits (-10.0 170.0)
 end
 begin
     id 9 
     name rfoot
     direction -0.16057 -0.441164 0.882945   
     length 2.10014  
     axis -90 1.13533e-015 -20   XYZ
    dof rx rz
    limits (-45.0 90.0)
           (-20.0 70.0)
  end
  begin
     id 10 
     name rtoes
     direction -1.53553e-011 -4.2192e-011 1   
     length 1.02554   
     axis -90 1.13533e-015 -20   XYZ
    dof rx
    limits (-90.0 20.0)
  end
  begin
     id 11 
     name lowerback
     direction 0.0401429 0.998861 -0.0258085   
     length 1.80848   
     axis 0 -0 0   XYZ
    dof rx ry rz
    limits (-20.0 45.0)
           (-30.0 30.0)
           (-30.0 30.0)
  end
  begin
     id 12 
     name upperback
     direction -0.0130978 0.999914 -0.000352645   
     length 1.8116   
     axis 0 -0 0   XYZ
    dof rx ry rz
    limits (-20.0 45.0)
           (-30.0 30.0)
           (-30.0 30.0)
  end
  begin
     id 13 
     name thorax
     direction -0.0300198 0.999453 0.0138573   
     length 1.81778   
     axis 0 -0 0   XYZ
    dof rx ry rz
    limits (-20.0 45.0)
           (-30.0 30.0)
           (-30.0 30.0)
  end
  begin
     id 14 
     name lowerneck
     direction -0.0401726 0.999191 -0.00173647   
     length 2.10594   
     axis 0 -0 0   XYZ
    dof rx ry rz
    limits (-20.0 45.0)
           (-30.0 30.0)
           (-30.0 30.0)
  end
  begin
     id 15 
     name upperneck
     direction 0.0119835 0.998501 0.0534085   
     length 2.07325   
     axis 0 -0 0   XYZ
    dof rx ry rz
    limits (-20.0 45.0)
           (-30.0 30.0)
           (-30.0 30.0)
  end
  begin
     id 16
     name head
     direction 0.00628309 0.999826 0.0175921  
     length 2.15096  
     axis 0 -0 0   XYZ
    dof rx ry rz
    limits (-20.0 45.0)
           (-30.0 30.0)
           (-30.0 30.0)
  end
  begin
     id 17 
     name lclavicle
     direction 0.895501 0.429681 -0.115981  
     length 4.18092  
     axis 0 -0 0   XYZ
    dof ry rz
    limits (-20.0 10.0)
           (0.0 20.0)
  end
  begin
     id 18 
     name lhumerus
     direction 1 -4.48961e-011 -3.38433e-028   
     length 5.77237   
     axis 180 -30 -90   XYZ
    dof rx ry rz
    limits (-60.0 90.0)
           (-90.0 90.0)
           (-90.0 90.0)
  end
  begin
     id 19
     name lradius
     direction 1 -4.4901e-011 1.11983e-026   
     length 2.91878   
     axis 180 -30 -90   XYZ
    dof rx
    limits (-10.0 170.0)
  end
  begin
     id 20
     name lwrist
     direction 1 -4.48934e-011 1.88176e-026   
     length 1.45939   
     axis -1.23311e-014 90 90   XYZ
    dof ry
    limits (-180.0 0.0)
 end
  begin
     id 21 
     name lhand
     direction 1 -4.4895e-011 3.76352e-026   
     length 1.06566   
     axis -2.40147e-014 90 90   XYZ
    dof rx rz
    limits (-90.0 90.0)
           (-45.0 45.0)
  end
  begin
     id 22 
     name lfingers
     direction 1 -4.49005e-011 7.52705e-026   
     length 0.859162   
     axis -4.80295e-014 90 90   XYZ
    dof rx
    limits (0.0 90.0)
  end
  begin
     id 23
     name lthumb
     direction 0.707107 -6.34885e-011 0.707107   
     length 1.23359   
     axis -90 45 -9.86935e-015   XYZ
    dof rx rz
    limits (-45.0 45.0)
           (-45.0 45.0)
  end
  begin
     id 24 
     name rclavicle
     direction -0.91006 0.40451 -0.0903492   
     length 4.23293  
     axis 0 -0 0   XYZ 
    dof ry rz
    limits (-10.0 20.0)
           (-20.0 0.0)
  end
  begin
     id 25 
     name rhumerus
     direction -1 -4.4897e-011 1.7415e-027  
     length 5.49854   
     axis 180 30 90   XYZ
    dof rx ry rz
    limits (-90.0 60.0)
           (-90.0 90.0)
           (-90.0 90.0)
  end
  begin
     id 26 
     name rradius
     direction -1 -4.48963e-011 1.21259e-026   
     length 3.1186   
     axis 180 30 90   XYZ
    dof rx
    limits (-10.0 170.0)
  end
  begin
     id 27 
     name rwrist
     direction -1 -4.48967e-011 1.88176e-026   
     length 1.5593   
     axis -1.23311e-014 -90 -90   XYZ
    dof ry
    limits (-180.0 0.0)
  end
  begin
     id 28
     name rhand
     direction -1 -4.4895e-011 3.76352e-026   
     length 0.71207   
     axis -2.40147e-014 -90 -90   XYZ
    dof rx rz
    limits (-90.0 90.0)
           (-45.0 45.0)
  end
  begin
     id 29
     name rfingers
     direction -1 -4.49005e-011 7.52705e-026   
     length 0.574089   
     axis -4.80295e-014 -90 -90   XYZ
    dof rx
    limits (0.0 90.0)
  end
  begin
     id 30
     name rthumb
     direction -0.707107 -6.34982e-011 0.707107   
     length 0.824281   
     axis -90 -45 9.86935e-015   XYZ
    dof rx rz
    limits (-45.0 45.0)
           (-45.0 45.0)
  end
:hierarchy
  begin
    root lhipjoint rhipjoint lowerback
    lhipjoint lfemur
    lfemur ltibia
    ltibia lfoot
    lfoot ltoes
    rhipjoint rfemur
    rfemur rtibia
    rtibia rfoot
    rfoot rtoes
    lowerback upperback
    upperback thorax
    thorax lowerneck lclavicle rclavicle
    lowerneck upperneck
    upperneck head
    lclavicle lhumerus
    lhumerus lradius
    lradius lwrist
    lwrist lhand lthumb
    lhand lfingers
    rclavicle rhumerus
    rhumerus rradius
    rradius rwrist
    rwrist rhand rthumb
    rhand rfingers
  end

#!OML:ASF C:\ViconDB\ViconDB\414\Spring2016\042216\male.ASF
:FULLY-SPECIFIED
:DEGREES
474
root 27.1263 17.077 -1.28396 -365.66 62.978 -4.90735
lowerback 7.11588 -5.59908 2.36997
upperback 0.161779 -7.35921 -2.44626
thorax -4.42636 -3.72154 -3.02736
lowerneck 4.24998 13.251 -4.94483
upperneck -13.2067 16.7314 -6.61932
head -4.51749 8.85856 -2.10946
rclavicle 7.42958e-014 -3.33958e-014
rhumerus -14.0781 -26.1943 -27.7953
rradius 95.9153
rwrist 4.73813
rhand 3.06153 -27.7998
rfingers 7.12502
rthumb 28.5193 -55.6452
lclavicle 7.42958e-014 -3.33958e-014
lhumerus -19.5264 19.7218 54.1642
lradius 95.8139
lwrist 16.8236
lhand -20.474 7.57151
lfingers 7.12502
lthumb 5.88221 37.4699
rfemur -37.7124 -10.1245 27.911
rtibia 81.4069
rfoot -4.4242 10.6618
rtoes -10.7029
lfemur -1.03779 2.55047 -10.2036
ltibia 40.2784
lfoot -13.307 34.1008
ltoes -35.0022
475
root 27.1129 16.9495 -1.43054 -365.223 65.4302 -4.89476
lowerback 7.12369 -5.69933 2.54137
upperback 0.112462 -7.4792 -2.43017
thorax -4.51156 -3.78596 -3.08529
lowerneck 4.41404 13.0252 -5.15416
upperneck -13.3748 16.3681 -6.87464
head -4.59707 8.71338 -2.15854
rclavicle 4.12727e-014 6.36111e-015
rhumerus -15.8939 -26.4676 -27.297
rradius 96.0196
rwrist 5.06051
rhand 3.17991 -28.3924
rfingers 7.12502
rthumb 28.6325 -56.2188
lclavicle 4.12727e-014 6.36111e-015
lhumerus -20.5556 18.1304 56.0369
lradius 94.1722
lwrist 16.8069
lhand -20.173 8.57265
lfingers 7.12502
lthumb 6.17279 38.4627
rfemur -38.8057 -10.2313 27.8567
rtibia 84.1622
rfoot -5.13195 12.0658
rtoes -11.9475
lfemur -0.936295 1.13332 -10.8383
ltibia 39.3887
lfoot -17.0782 35.0738
ltoes -36.9087
476
root 27.0966 16.8112 -1.57815 -365.093 67.6936 -5.29123
lowerback 6.98477 -5.76872 2.75591
upperback 0.170241 -7.54909 -2.25568
thorax -4.38279 -3.82151 -3.03117
lowerneck 4.75163 12.7992 -5.34269
upperneck -14.0177 15.9307 -7.5384
head -4.81901 8.57446 -2.36071
rclavicle 2.65874e-014 2.22639e-014
rhumerus -17.0737 -26.9098 -27.5551
rradius 95.6819
rwrist 5.95024
rhand 2.89507 -28.6646
rfingers 7.12502
rthumb 28.3603 -56.5365
lclavicle 2.65874e-014 2.22639e-014
lhumerus -21.4039 16.8781 58.0441
lradius 92.2036
lwrist 16.2001
lhand -19.8832 9.73486
lfingers 7.12502
lthumb 6.45253 39.6166
rfemur -39.8693 -9.94785 27.9331
rtibia 86.6871
rfoot -5.59256 12.8746
rtoes -11.971
lfemur -1.78686 -0.595747 -11.1224
ltibia 39.4932
lfoot -21.6637 36.2545
ltoes -36.7159
477
root 27.0635 16.6532 -1.73256 -365.727 69.7601 -6.49027
lowerback 6.98455 -5.84103 3.24969
upperback 0.308464 -7.59505 -2.02103
thorax -4.27414 -3.84827 -3.06118
lowerneck 5.04159 12.6616 -5.42943
upperneck -14.8534 15.5978 -8.33456
head -5.07581 8.50281 -2.62779
rclavicle 1.10723e-013 -6.36111e-015
rhumerus -18.5048 -27.3767 -28.1733
rradius 95.5363
rwrist 6.78828
rhand 2.61363 -28.8562
rfingers 7.12502
rthumb 28.0913 -56.7726
lclavicle 1.10723e-013 -6.36111e-015
lhumerus -22.1281 15.8593 59.9744
lradius 89.8953
lwrist 15.0712
lhand -19.5097 10.7872
lfingers 7.12502
lthumb 6.81317 40.6576
rfemur -40.9203 -9.39206 28.545
rtibia 88.7846
rfoot -6.05465 12.7247
rtoes -12.7528
lfemur -3.29473 -1.77846 -11.0166
ltibia 40.4592
lfoot -25.6604 34.9152
ltoes -34.5096
478
root 27.0456 16.5018 -1.87905 -365.79 71.8235 -6.6475
lowerback 6.94748 -5.94574 3.3321
upperback 0.764251 -7.7182 -1.93105
thorax -3.78679 -3.89517 -3.03054
lowerneck 5.05977 12.5755 -5.63717
upperneck -15.7133 15.3527 -9.02522
head -5.31613 8.47885 -2.83742
rclavicle -2.75814e-014 1.98785e-014
rhumerus -19.1914 -28.0934 -29.548
rradius 94.937
rwrist 8.03903
rhand 3.02362 -28.4833
rfingers 7.12502
rthumb 28.4831 -56.3347
lclavicle -2.75814e-014 1.98785e-014
lhumerus -22.6396 15.2659 61.9667
lradius 87.3242
lwrist 14.4667
lhand -19.6339 11.2807
lfingers 7.12502
lthumb 6.69321 41.1549
rfemur -41.2594 -8.72592 28.6067
rtibia 90.5961
rfoot -6.90749 12.1545
rtoes -15.1684
lfemur -4.67298 -2.20511 -11.2644
ltibia 42.0323
lfoot -28.9889 34.4089
ltoes -32.045
479
root 27.009 16.3648 -2.01371 -365.776 73.4373 -6.48076
lowerback 7.12703 -5.89997 3.2267
upperback 1.33833 -7.64897 -1.96005
thorax -3.27401 -3.84023 -3.02911
lowerneck 4.54184 12.5415 -5.92387
upperneck -15.8598 15.3213 -9.1265
head -5.29348 8.49271 -2.79814
rclavicle -2.96189e-014 -7.95139e-016
rhumerus -19.8725 -28.7108 -31.5391
rradius 93.9308
rwrist 8.98544
rhand 2.22765 -28.4515
rfingers 7.12502
rthumb 27.7223 -56.4279
lclavicle -2.96189e-014 -7.95139e-016
lhumerus -23.0685 14.6946 63.7544
lradius 84.4571
lwrist 13.9173
lhand -19.7386 11.5652
lfingers 7.12502
lthumb 6.59216 41.4426
rfemur -41.484 -7.12266 28.6
rtibia 92.1353
rfoot -7.14425 10.7997
rtoes -15.0925
lfemur -6.05293 -1.49465 -11.5296
ltibia 44.1266
lfoot -32.0256 34.0001
ltoes -33.4336
